<svg width="24" height="40" viewBox="0 0 24 40" fill="none" xmlns="http://www.w3.org/2000/svg">
<path d="M22.3544 16H18.704H17.4003V14.7097V10.7097V9.41935H18.704H21.4418C22.1589 9.41935 22.7455 8.90323 22.7455 8.12903V1.29032C22.7455 0.580645 22.224 0 21.4418 0H16.6833C11.5337 0 7.94846 3.6129 7.94846 8.96774V14.5806V15.871H6.64475H2.21215C1.29956 15.871 0.452148 16.5806 0.452148 17.6129V22.2581C0.452148 23.1613 1.16919 24 2.21215 24H6.51438H7.81809V25.2903V38.2581C7.81809 39.1613 8.53513 40 9.57809 40H15.7055C16.0966 40 16.4226 39.8064 16.6833 39.5484C16.944 39.2903 17.1396 38.8387 17.1396 38.4516V25.3548V24.0645H18.5085H21.4418C22.2892 24.0645 22.9411 23.5484 23.0715 22.7742V22.7097V22.6452L23.984 18.1935C24.0492 17.7419 23.984 17.2258 23.5929 16.7097C23.4626 16.3871 22.8759 16.0645 22.3544 16Z" fill="#DDDDDD"/>
</svg>
