<svg width="56" height="40" viewBox="0 0 56 40" fill="none" xmlns="http://www.w3.org/2000/svg">
<path d="M42.0332 0H14.3276C6.91655 0 0.908691 6.00783 0.908691 13.4189V26.5811C0.908691 33.9922 6.91655 40 14.3276 40H42.0332C49.4443 40 55.4521 33.9922 55.4521 26.5811V13.4189C55.4521 6.00783 49.4443 0 42.0332 0Z" fill="white"/>
<path d="M39.264 20.1178L21.015 29.9518C20.8765 30.0282 20.7205 30.0671 20.5624 30.0645C20.4043 30.0619 20.2497 30.018 20.1138 29.9371C19.9779 29.8562 19.8657 29.7411 19.7881 29.6034C19.7105 29.4656 19.6703 29.3099 19.6715 29.1518V9.39331C19.6703 9.23519 19.7105 9.07951 19.7881 8.94174C19.8657 8.80397 19.9779 8.6889 20.1138 8.608C20.2497 8.5271 20.4043 8.48317 20.5624 8.48059C20.7205 8.47801 20.8765 8.51688 21.015 8.59331L39.2414 18.5103C39.3855 18.5882 39.5063 18.7031 39.5912 18.8432C39.6761 18.9833 39.7221 19.1436 39.7244 19.3074C39.7267 19.4712 39.6853 19.6327 39.6043 19.7752C39.5234 19.9176 39.4059 20.0359 39.264 20.1178Z" fill="#003366"/>
</svg>
