<svg width="121" height="120" viewBox="0 0 121 120" fill="none" xmlns="http://www.w3.org/2000/svg">
<rect x="2.5" y="2" width="116" height="116" rx="58" stroke="white" stroke-width="4"/>
<path fill-rule="evenodd" clip-rule="evenodd" d="M86.0837 46.0001C86.0837 43.0606 84.916 40.2415 82.8374 38.163C80.7589 36.0845 77.9398 34.9167 75.0003 34.9167H47.0003C44.0608 34.9167 41.2418 36.0845 39.1632 38.163C37.0847 40.2415 35.917 43.0606 35.917 46.0001V74.0001C35.917 76.9396 37.0847 79.7587 39.1632 81.8372C41.2418 83.9157 44.0608 85.0834 47.0003 85.0834H75.0003C77.9398 85.0834 80.7589 83.9157 82.8374 81.8372C84.916 79.7587 86.0837 76.9396 86.0837 74.0001V46.0001ZM82.5837 46.0001V74.0001C82.5846 74.9962 82.3891 75.9827 82.0083 76.9032C81.6275 77.8237 81.069 78.66 80.3646 79.3644C79.6602 80.0687 78.8239 80.6273 77.9034 81.008C76.983 81.3888 75.9964 81.5843 75.0003 81.5834H47.0003C46.0042 81.5843 45.0177 81.3888 44.0972 81.008C43.1768 80.6273 42.3404 80.0687 41.636 79.3644C40.9317 78.66 40.3731 77.8237 39.9924 76.9032C39.6116 75.9827 39.4161 74.9962 39.417 74.0001V46.0001C39.4161 45.004 39.6116 44.0174 39.9924 43.097C40.3731 42.1765 40.9317 41.3402 41.636 40.6358C42.3404 39.9314 43.1768 39.3729 44.0972 38.9921C45.0177 38.6113 46.0042 38.4158 47.0003 38.4167H75.0003C75.9964 38.4158 76.983 38.6113 77.9034 38.9921C78.8239 39.3729 79.6602 39.9314 80.3646 40.6358C81.069 41.3402 81.6275 42.1765 82.0083 43.097C82.3891 44.0174 82.5846 45.004 82.5837 46.0001Z" fill="white"/>
<path fill-rule="evenodd" clip-rule="evenodd" d="M62.1389 51.0471L56.5389 67.8471C56.4131 68.2819 56.4605 68.7486 56.6711 69.1494C56.8817 69.5501 57.2393 69.8537 57.6688 69.9967C58.0983 70.1397 58.5665 70.1109 58.9753 69.9163C59.3841 69.7218 59.7017 69.3766 59.8616 68.9531L65.4616 52.1531C65.5874 51.7182 65.5401 51.2515 65.3295 50.8508C65.1188 50.45 64.7613 50.1464 64.3318 50.0034C63.9022 49.8604 63.434 49.8892 63.0252 50.0838C62.6165 50.2783 62.2989 50.6235 62.1389 51.0471ZM68.1636 55.6367L72.5246 60.0001L68.1636 64.3634C68.0012 64.5258 67.8724 64.7186 67.7845 64.9308C67.6966 65.143 67.6514 65.3704 67.6514 65.6001C67.6514 65.8297 67.6966 66.0572 67.7845 66.2693C67.8724 66.4815 68.0012 66.6743 68.1636 66.8367C68.326 66.9991 68.5188 67.128 68.731 67.2158C68.9432 67.3037 69.1706 67.349 69.4003 67.349C69.63 67.349 69.8574 67.3037 70.0696 67.2158C70.2817 67.128 70.4745 66.9991 70.6369 66.8367L76.2369 61.2367C76.3995 61.0744 76.5285 60.8816 76.6164 60.6694C76.7044 60.4572 76.7497 60.2298 76.7497 60.0001C76.7497 59.7703 76.7044 59.5429 76.6164 59.3307C76.5285 59.1185 76.3995 58.9257 76.2369 58.7634L70.6369 53.1634C70.4745 53.001 70.2817 52.8722 70.0696 52.7843C69.8574 52.6964 69.63 52.6511 69.4003 52.6511C69.1706 52.6511 68.9432 52.6964 68.731 52.7843C68.5188 52.8722 68.326 53.001 68.1636 53.1634C68.0012 53.3258 67.8724 53.5186 67.7845 53.7308C67.6966 53.943 67.6514 54.1704 67.6514 54.4001C67.6514 54.6297 67.6966 54.8572 67.7845 55.0693C67.8724 55.2815 68.0012 55.4743 68.1636 55.6367ZM51.3636 53.1634L45.7636 58.7634C45.6011 58.9257 45.4721 59.1185 45.3841 59.3307C45.2961 59.5429 45.2509 59.7703 45.2509 60.0001C45.2509 60.2298 45.2961 60.4572 45.3841 60.6694C45.4721 60.8816 45.6011 61.0744 45.7636 61.2367L51.3636 66.8367C51.526 66.9991 51.7188 67.128 51.931 67.2158C52.1432 67.3037 52.3706 67.349 52.6003 67.349C52.83 67.349 53.0574 67.3037 53.2696 67.2158C53.4817 67.128 53.6745 66.9991 53.8369 66.8367C53.9993 66.6743 54.1282 66.4815 54.2161 66.2693C54.304 66.0572 54.3492 65.8297 54.3492 65.6001C54.3492 65.3704 54.304 65.143 54.2161 64.9308C54.1282 64.7186 53.9993 64.5258 53.8369 64.3634L49.4759 60.0001L53.8369 55.6367C53.9993 55.4743 54.1282 55.2815 54.2161 55.0693C54.304 54.8572 54.3492 54.6297 54.3492 54.4001C54.3492 54.1704 54.304 53.943 54.2161 53.7308C54.1282 53.5186 53.9993 53.3258 53.8369 53.1634C53.6745 53.001 53.4817 52.8722 53.2696 52.7843C53.0574 52.6964 52.83 52.6511 52.6003 52.6511C52.3706 52.6511 52.1432 52.6964 51.931 52.7843C51.7188 52.8722 51.526 53.001 51.3636 53.1634Z" fill="white"/>
</svg>
