<svg width="120" height="120" viewBox="0 0 120 120" fill="none" xmlns="http://www.w3.org/2000/svg">
<rect x="2" y="2" width="116" height="116" rx="58" stroke="white" stroke-width="4"/>
<g clip-path="url(#clip0_1_124)">
<path d="M42.0938 64.2471C41.8463 64.2471 41.6089 64.3454 41.4338 64.5205C41.2587 64.6955 41.1604 64.9329 41.1604 65.1805V67.7484C41.1604 67.996 41.2587 68.2334 41.4338 68.4085C41.6089 68.5835 41.8463 68.6819 42.0938 68.6819C42.3414 68.6819 42.5788 68.5835 42.7539 68.4085C42.9289 68.2334 43.0273 67.996 43.0273 67.7484V65.1805C43.0273 64.9329 42.9289 64.6955 42.7539 64.5205C42.5788 64.3454 42.3414 64.2471 42.0938 64.2471Z" fill="white"/>
<path d="M83.8961 43.999C79.4914 39.1852 73.2438 36.2653 66.5524 36.0497C66.3614 35.3767 66.1637 34.7057 65.9595 34.0366C65.5227 32.6123 64.0915 31.7625 62.6311 32.0587C55.8471 33.437 49.8849 37.5323 46.2524 43.7523C45.3671 45.268 46.0364 47.2267 47.675 47.8714C51.1136 49.224 54.1121 51.465 56.3462 54.3525C56.499 54.5444 56.7212 54.6684 56.9648 54.6977C57.2083 54.7271 57.4536 54.6593 57.6476 54.5092C57.8417 54.3591 57.9688 54.1387 58.0016 53.8956C58.0343 53.6525 57.9701 53.4062 57.8227 53.2101C56.3984 51.3692 54.6887 49.7715 52.7672 48.4649C54.2397 45.4986 54.1582 42.1357 52.5304 39.025C54.0733 37.6755 55.7954 36.5456 57.6477 35.6675C58.6967 37.4962 60.3603 38.8696 62.4457 39.6301C61.4365 46.7184 61.3474 51.4879 61.8704 56.2534C60.9842 56.2298 60.0302 56.2558 58.9803 56.3338C54.1629 56.6919 51.9199 60.8697 47.7417 62.0449C47.409 60.825 46.2912 59.9255 44.9675 59.9255H39.221C37.6357 59.9255 36.3459 61.2153 36.3459 62.8005V82.8424C36.3459 84.4276 37.6357 85.7174 39.221 85.7174H44.9674C46.4553 85.7174 47.6826 84.5812 47.8279 83.1308C52.8468 84.2961 53.6805 88 62.0742 88C72.4463 88 66.1513 87.9999 69.2842 87.9999C72.5919 87.9999 74.0717 84.6256 72.6665 82.1485C76.5534 82.0336 77.649 77.3343 75.307 75.0568C77.2947 73.5445 77.4087 70.2643 75.4849 68.596C78.0615 66.3667 76.9643 61.3345 72.7898 61.3345H64.5253C63.5141 55.8353 63.1042 51.3597 63.7099 44.793C66.9475 44.2862 69.6476 42.1874 70.9224 38.4948C73.2277 39.0299 75.4355 39.9213 77.4661 41.1368C75.9997 44.1209 76.1845 47.4833 77.994 50.5734C75.9677 52.866 74.4176 55.5667 73.4799 58.4995C73.4075 58.7344 73.4308 58.9885 73.5446 59.2064C73.6584 59.4243 73.8536 59.5885 74.0878 59.6634C74.322 59.7383 74.5762 59.7177 74.7954 59.6063C75.0145 59.4948 75.1808 59.3014 75.2582 59.0681C76.6566 54.6944 79.5408 50.8821 83.3794 48.3333C84.8447 47.3599 85.087 45.3007 83.8961 43.999ZM48.3583 46.134C47.776 45.905 47.5608 45.2134 47.8643 44.6938C48.7912 43.1066 49.8815 41.6627 51.113 40.3776C52.1926 42.7456 52.2154 45.2462 51.1724 47.4743C50.2665 46.9631 49.3262 46.5152 48.3583 46.134ZM59.383 34.9295C60.5598 34.4864 61.7702 34.1382 63.0027 33.8883C63.5179 33.784 64.0209 34.0828 64.1745 34.5838C64.3348 35.1084 64.4909 35.6342 64.643 36.1612C63.8486 36.4057 63.1927 36.9972 62.8395 37.7831C61.3632 37.1889 60.1741 36.2063 59.383 34.9295ZM62.2427 63.2011H72.7898C75.7715 63.2011 75.6722 67.6038 72.9071 67.6505H69.078C68.8304 67.6505 68.593 67.7488 68.4179 67.9239C68.2429 68.0989 68.1445 68.3364 68.1445 68.5839C68.1445 68.8315 68.2429 69.0689 68.4179 69.244C68.593 69.419 68.8304 69.5174 69.078 69.5174H72.7898C75.7715 69.5174 75.6722 73.9202 72.9071 73.9669H68.6715C68.4239 73.9669 68.1865 74.0652 68.0114 74.2403C67.8364 74.4153 67.738 74.6528 67.738 74.9003C67.738 75.1479 67.8364 75.3853 68.0114 75.5604C68.1865 75.7354 68.4239 75.8338 68.6715 75.8338H72.4546C75.4363 75.8338 75.3372 80.2365 72.572 80.2831H67.2638C67.0163 80.2831 66.7788 80.3815 66.6038 80.5565C66.4287 80.7316 66.3304 80.969 66.3304 81.2166C66.3304 81.4641 66.4287 81.7016 66.6038 81.8766C66.7788 82.0517 67.0163 82.15 67.2638 82.15H69.3195C71.9872 82.15 72.0257 86.1329 69.284 86.1329H62.0741C54.0005 86.1329 53.8026 82.4172 47.8422 81.2221V67.7484C47.8422 67.5008 47.7439 67.2634 47.5688 67.0883C47.3938 66.9133 47.1564 66.8149 46.9088 66.8149C46.6612 66.8149 46.4238 66.9133 46.2488 67.0883C46.0737 67.2634 45.9754 67.5008 45.9754 67.7484V82.8424C45.9754 83.3983 45.5231 83.8505 44.9672 83.8505H39.221C38.6651 83.8505 38.2128 83.3984 38.2128 82.8424V62.8004C38.2128 62.2446 38.6651 61.7923 39.221 61.7923H44.9674C45.5232 61.7923 45.9755 62.2446 45.9755 62.8004V63.1809C45.9755 63.7542 46.4884 64.1927 47.0548 64.1029C52.4878 63.2431 54.6922 58.5244 59.1187 58.1954C60.2216 58.1135 61.2057 58.0918 62.1064 58.1287C62.2542 59.1751 62.4288 60.2357 62.6276 61.3342H62.243C61.9954 61.3342 61.758 61.4326 61.5829 61.6076C61.4079 61.7827 61.3095 62.0201 61.3095 62.2677C61.3095 62.3902 61.3336 62.5116 61.3804 62.6249C61.4273 62.7381 61.4961 62.841 61.5827 62.9277C61.6694 63.0144 61.7723 63.0832 61.8855 63.1301C61.9988 63.177 62.1201 63.2011 62.2427 63.2011ZM63.9113 42.856C64.0536 41.6162 64.2289 40.302 64.4398 38.8947C64.5263 38.3183 64.9427 37.911 65.4525 37.9043C66.661 37.8879 67.869 37.9676 69.0649 38.1426C68.1667 40.5296 66.4596 42.2827 63.9113 42.856ZM82.3465 46.7779C81.2802 47.4865 80.2773 48.2863 79.3491 49.1683C78.1267 46.8251 78.0191 44.3998 79.0399 42.1716C80.3029 43.078 81.4687 44.1127 82.5185 45.2593C82.9281 45.7066 82.8687 46.4311 82.3465 46.7779Z" fill="white"/>
</g>
<defs>
<clipPath id="clip0_1_124">
<rect width="56" height="56" fill="white" transform="translate(32.5 32)"/>
</clipPath>
</defs>
</svg>
