<svg width="43" height="40" viewBox="0 0 43 40" fill="none" xmlns="http://www.w3.org/2000/svg">
<path d="M21.672 27.4804C25.9913 27.4804 29.4929 24.1298 29.4929 19.9966C29.4929 15.8633 25.9913 12.5127 21.672 12.5127C17.3526 12.5127 13.8511 15.8633 13.8511 19.9966C13.8511 24.1298 17.3526 27.4804 21.672 27.4804Z" fill="#DDDDDD"/>
<path d="M30.1736 0H13.0486C6.239 0 0.710449 5.29032 0.710449 11.8065V28.0645C0.710449 34.7097 6.239 40 13.0486 40H30.0388C36.9832 40 42.5117 34.7097 42.5117 28.1935V11.8065C42.5117 5.29032 36.9832 0 30.1736 0ZM21.6785 29.8065C15.9477 29.8065 11.4304 25.3548 11.4304 20C11.4304 14.6452 16.0151 10.1935 21.6785 10.1935C27.2745 10.1935 31.8591 14.6452 31.8591 20C31.8591 25.3548 27.3419 29.8065 21.6785 29.8065ZM35.837 11.0968C35.1628 11.8065 34.1515 12.1935 33.0053 12.1935C31.994 12.1935 30.9827 11.8065 30.1736 11.0968C29.432 10.3871 29.0274 9.48387 29.0274 8.3871C29.0274 7.29032 29.432 6.45161 30.1736 5.67742C30.9152 4.90323 31.8591 4.51613 33.0053 4.51613C34.0166 4.51613 35.0954 4.90323 35.837 5.6129C36.5112 6.45161 36.9832 7.41935 36.9832 8.45161C36.9157 9.48387 36.5112 10.3871 35.837 11.0968Z" fill="#DDDDDD"/>
<path d="M33.0713 6.83594C32.1949 6.83594 31.4532 7.54561 31.4532 8.38432C31.4532 9.22303 32.1949 9.93271 33.0713 9.93271C33.9478 9.93271 34.6894 9.22303 34.6894 8.38432C34.6894 7.54561 34.0152 6.83594 33.0713 6.83594Z" fill="#DDDDDD"/>
</svg>
