<svg width="43" height="40" viewBox="0 0 43 40" fill="none" xmlns="http://www.w3.org/2000/svg">
<path d="M39.9451 0H3.60307C1.88559 0 0.511597 1.29032 0.511597 2.90323V37.0968C0.511597 38.6452 1.88559 40 3.60307 40H39.8077C41.5252 40 42.8991 38.7097 42.8991 37.0968V2.83871C43.0365 1.29032 41.6626 0 39.9451 0ZM13.0836 34H6.83194V14.9677H13.0836V34ZM9.92342 12.3226C7.86244 12.3226 6.28235 10.7742 6.28235 8.90323C6.28235 7.03226 7.93113 5.48387 9.92342 5.48387C11.9157 5.48387 13.5645 7.03226 13.5645 8.90323C13.5645 10.7742 12.0531 12.3226 9.92342 12.3226ZM36.7849 34H30.5332V24.7742C30.5332 22.5806 30.4646 19.6774 27.2357 19.6774C23.9381 19.6774 23.4572 22.129 23.4572 24.5806V34H17.2056V14.9677H23.3198V17.6129H23.3885C24.2816 16.0645 26.2739 14.5161 29.3654 14.5161C35.7544 14.5161 36.9223 18.3871 36.9223 23.6774V34H36.7849Z" fill="#DDDDDD"/>
</svg>
